# xmcd CD database file
#
# Track frame offsets:
#	150
#	52397
#	109445
#	125096
#	175155
#	203359
#	248367
#
# Disc length: 4093 seconds
#
# Revision: 0
# Processed by: cddbd v1.5.2PL0 Copyright (c) Steve Scherf et al.
# Submitted via: CDex 1.70beta3
#
DISCID=600ffb07
DTITLE=Peter Brotzmann and Improvising Ensemble of Qianxingzhe - China Live 2011
DYEAR=2011
DGENRE=Jazz
TTITLE0=Deciduous Carnival
TTITLE1=Walking in Wu Men
TTITLE2=Talking About Dreams After Wake Up from Drunken in Spring
TTITLE3=Beijing Legend
TTITLE4=Art District-798
TTITLE5=Moat
TTITLE6=Feel As If We Were Visiting Our Countries of Birth
EXTD=YEAR: 2011
EXTT0=
EXTT1=
EXTT2=
EXTT3=
EXTT4=
EXTT5=
EXTT6=
PLAYORDER=
